<svg xmlns="http://www.w3.org/2000/svg" viewBox="0 0 909.28 604.36"><defs><style>.cls-1{fill:#fff;}.cls-2{fill:#f7931e;}.cls-3{fill:#fcee21;}</style></defs><g id="Layer_2" data-name="Layer 2"><g id="Layer_1-2" data-name="Layer 1"><g id="Laptop"><g id="Keyboard"><polygon class="cls-1" points="548.2 545.11 553.29 558.29 355.99 558.29 361.08 545.11 548.2 545.11"/><path class="cls-2" d="M156.08,482.84l-135.81,82H889l-135.82-82Zm397.21,75.45H356l5.09-13.18H548.2Zm307.77,46.07H48.22a28,28,0,0,1-27.95-28H889A28,28,0,0,1,861.06,604.36Z"/></g><g id="Monitor"><rect id="Screen" x="206.08" y="50" width="497.12" height="359.23"/><path id="Border" class="cls-2" d="M753.2,459.23H156.08V50c0-29.71,23.7-50,50-50H703.2c26,0,50,21.36,50,50Zm-547.12-50H703.2V50H206.08Z"/></g></g><path class="cls-3" d="M585.52,113.45A25,25,0,1,0,561.67,81h-82V63.45h-50V81h-82a25,25,0,1,0,0,15h48.7A120.91,120.91,0,0,0,334,194.33H316.27v50h50v-50H349c3.29-45.6,36.34-84.61,80.6-95.39v14.51h50V98.94c44.26,10.78,77.31,49.79,80.61,95.39H543v50h50v-50H575.28A120.91,120.91,0,0,0,513,96h48.7A25,25,0,0,0,585.52,113.45ZM351.27,209.33v20h-20v-20Zm226.75,0v20H558v-20ZM464.64,98.45h-20v-20h20Z"/><path class="cls-3" d="M512.46,214.36l5.29-5.87-6.13-5c-19-15.44-35.41-38-50.21-69l-6.77-14.16-6.77,14.16c-14.8,31-31.22,53.53-50.21,69l-6.13,5,5.29,5.87c10.33,11.43,16.14,30.12,17.67,56.92h-22.1v124.5h124.5V271.28h-22.1C496.32,244.47,502.13,225.79,512.46,214.36Zm-99.72-4c12.49-11.27,23.88-25.42,34.4-42.77v43h15v-43c10.52,17.35,21.91,31.5,34.41,42.77-9.79,14.09-15.32,34.18-16.78,60.94H429.51C428.05,244.52,422.52,224.43,412.74,210.34Zm74.15,155.44h-64.5v-64.5h64.5Z"/><g id="Braces"><path class="cls-3" d="M773.43,365.33h18.18c36.37,0,44.57-9.27,44.57-32.45,0-21.75-2.13-40.29-2.13-64.54,0-23.17,7.48-34.58,32.09-38.86v-1.43c-24.61-4.28-32.09-15.69-32.09-38.87,0-22.1,2.13-44.21,2.13-64.53,0-23.18-8.2-32.45-44.57-32.45H773.43V75.44h21.75c44.93,0,65.61,10.7,65.61,47.42,0,24.61-3.21,46.36-3.21,68.82,0,13.91,9.63,27.46,51.7,27.81V238c-42.07.36-51.7,13.91-51.7,27.82,0,23.89,3.21,42.78,3.21,68.81,0,36.73-20.68,47.43-65.61,47.43H773.43Z"/><path class="cls-3" d="M135.85,382.09H114.1c-44.93,0-65.61-10.7-65.61-47.43,0-26,3.21-44.92,3.21-68.81,0-13.91-9.62-27.46-51.7-27.82V219.49c42.08-.35,51.7-13.9,51.7-27.81,0-22.46-3.21-44.21-3.21-68.82,0-36.72,20.68-47.42,65.61-47.42h21.75V92.2H117.67c-36.37,0-44.57,9.27-44.57,32.45,0,20.32,2.14,42.43,2.14,64.53,0,23.18-7.49,34.59-32.1,38.87v1.43c24.61,4.28,32.1,15.69,32.1,38.86,0,24.25-2.14,42.79-2.14,64.54,0,23.18,8.2,32.45,44.57,32.45h18.18Z"/></g></g></g></svg>