<svg xmlns="http://www.w3.org/2000/svg" viewBox="0 0 1165.54 1079.46"><defs><style>.cls-1{fill:#960000;}.cls-2{fill:#646464;}.cls-3{fill:red;}</style></defs><g id="Layer_2" data-name="Layer 2"><g id="Layer_2-2" data-name="Layer 2"><path class="cls-1" d="M717,31,653,95H425.23l-27-27h-129l-16-16H609l21-21ZM1048.9,361.05V446l20,20V831.14l15-15v-136l28-28V424.05Z"/><path class="cls-2" d="M457.24,135h-129l-29-29-11-11H22L0,73H395.23l33,33ZM1109.9,357V158.15l-26-26V385l35,35v33l34,34V400Zm16.84-251-75-75H998l-1.15,1.15-10,10L977,52,963.39,65.65,961,68l-5,5-1.13,1.12L950,79,934,95l-2.63,2.62L923,106l-.1.1-.1-.1h-132l29,29H948l1.91-1.9,8.47-8.48L977,106l4.87-4.88L988,95l2.35-2.35L1004,79h18.86v-.84l.84.84h-.84V423l20,20V79h.84l35.16,35.16,5,5,35,35v140l34-34v-128ZM693,68l-38,38H621l-29,29h72l29-29,11-11H917l5.87-5.88L933,79l11-11ZM1024.89.15l-2,2V0H657L635,22h411.7Zm66,684v395.33l21-21V791.13l41-41v-128Z"/><path class="cls-3" d="M101.43,141H68l-6-6L33,106l-4-4H62.43Zm39.17-6-29-29-4-4H74.16l4,4,29,29,6,6H146.6Zm45.16,0-29-29-4-4H119.32l4,4,29,29,6,6h33.43Zm45.16,0-29-29-4-4H164.48l4,4,29,29,6,6h33.43Zm45.16,0-29-29-4-4H209.64l4,4,29,29,6,6h33.43Zm45.16,0-29-29-4-4H254.81l39,39h33.43ZM1078.9,326v47l-30-30V296Zm-10-73.94-20-20v47l20,20,10,10v-47Zm0-63.95-20-20v47l20,20,10,10v-47Zm0-64-20-20v47l20,20,10,10v-47Zm90,853.3v34l-40,40v-34Zm-6-83.33-34,34v34l40-40v-34Zm-34-10.67v34l40-40v-34Zm0-44.66v34l40-40v-34Zm0-44.67v34l40-40v-34Zm0,178.66v34l40-40v-34ZM785.73,31l-32,32h-48l32-32Zm15.77,0-32,32h48l32-32Zm63.77,0-32,32h48l32-32ZM929,31,897,63h48l32-32ZM814.63,140.79l-38.38-37.45h-8l38.37,37.45,5.07,5h36v-5Zm345.91,95.27v28.43l-40.14,40.14v7l45.14-45.14V236.06Z"/></g></g></svg>